<?xml version="1.0" standalone="no"?>
<!DOCTYPE svg PUBLIC "-//W3C//DTD SVG 20010904//EN"
 "http://www.w3.org/TR/2001/REC-SVG-20010904/DTD/svg10.dtd">
<svg version="1.0" xmlns="http://www.w3.org/2000/svg"
 width="16" height="16" viewBox="0 0 370.000000 410.000000"
 preserveAspectRatio="xMidYMid meet">

<g transform="translate(0.000000,410.000000) scale(0.100000,-0.100000)"
fill="#000000" stroke="none">
<path d="M1320 4093 c-97 -9 -236 -39 -329 -70 -220 -73 -383 -175 -557 -348
-174 -174 -280 -342 -353 -562 -65 -193 -66 -208 -66 -758 0 -445 2 -509 18
-582 93 -421 354 -780 712 -975 l80 -44 2 -359 c3 -353 3 -360 24 -377 49 -41
55 -37 384 291 l310 310 465 4 c427 4 472 6 550 24 513 125 902 478 1063 963
61 184 62 201 62 745 0 445 -2 509 -18 585 -59 277 -183 512 -376 712 -242
253 -538 399 -883 437 -88 10 -996 13 -1088 4z m908 -579 c438 -90 762 -485
762 -929 0 -81 -12 -192 -26 -238 -8 -27 -58 -49 -88 -37 -41 15 -49 42 -35
120 7 41 10 114 7 186 -9 202 -80 371 -216 516 -160 169 -338 249 -585 264
-88 6 -114 11 -129 26 -24 24 -23 49 3 82 20 25 24 26 125 26 58 0 140 -7 182
-16z m-1004 -229 c40 -19 366 -347 389 -392 57 -110 12 -229 -107 -283 -101
-45 -155 -126 -142 -213 31 -198 294 -495 511 -576 123 -46 226 -8 284 107 32
63 72 105 114 121 39 15 121 14 160 -3 35 -14 366 -347 398 -399 25 -42 25
-128 0 -182 -24 -52 -251 -275 -311 -305 -120 -62 -337 -27 -573 91 -79 40
-291 180 -382 254 -410 329 -752 800 -836 1151 -30 129 -25 258 15 331 38 70
270 298 317 312 43 13 119 7 163 -14z m980 -45 c121 -31 208 -82 307 -180 135
-134 199 -283 200 -466 1 -52 -4 -101 -11 -113 -17 -33 -55 -44 -90 -26 -36
18 -43 41 -35 108 8 68 -16 183 -55 263 -38 78 -128 174 -205 219 -90 54 -174
76 -283 76 -106 1 -132 14 -132 69 0 54 31 70 135 70 59 0 120 -7 169 -20z m9
-299 c126 -61 215 -190 225 -321 4 -59 2 -70 -17 -89 -47 -47 -104 -9 -114 76
-8 68 -35 120 -90 170 -45 42 -121 73 -178 73 -18 0 -35 9 -48 26 -26 34 -26
45 1 79 20 26 24 27 90 23 49 -4 86 -14 131 -37z"/>
</g>
</svg>
